<svg version="1.1" viewBox="0.0 0.0 772.8320209973754 765.2729658792651" fill="none" stroke="none" stroke-linecap="square" stroke-miterlimit="10" xmlns:xlink="http://www.w3.org/1999/xlink" xmlns="http://www.w3.org/2000/svg"><clipPath id="p.0"><path d="m0 0l772.83203 0l0 765.27295l-772.83203 0l0 -765.27295z" clip-rule="nonzero"/></clipPath><g clip-path="url(#p.0)"><path fill="#000000" fill-opacity="0.0" d="m0 0l772.83203 0l0 765.27295l-772.83203 0z" fill-rule="evenodd"/><path fill="#0c343d" d="m0.33727035 383.61154l0 0c0 -213.22539 172.85335 -386.07874 386.07874 -386.07874l0 0c102.39444 0 200.5951 40.676033 272.9989 113.07985c72.40381 72.40381 113.079834 170.60445 113.079834 272.9989l0 0c0 213.22543 -172.85333 386.07877 -386.07874 386.07877l0 0c-213.2254 0 -386.07874 -172.85333 -386.07874 -386.07877z" fill-rule="evenodd"/><path fill="#ffd966" d="m518.46716 506.22046l25.215271 -6.567169l5.414673 -30.582428l5.414673 30.582428l25.215271 6.567169l-25.215271 6.5671997l-5.414673 30.582397l-5.414673 -30.582397z" fill-rule="evenodd"/><path fill="#ffd966" d="m126.57499 383.6117l213.90842 -44.87622l45.934113 -208.98204l45.934113 208.98204l213.90839 44.87622l-213.90839 44.87625l-45.934113 208.98203l-45.934113 -208.98203z" fill-rule="evenodd"/><path fill="#ffd966" d="m213.7559 252.35695l25.215271 -6.5671844l5.4146576 -30.582413l5.4146423 30.582413l25.215271 6.5671844l-25.215271 6.5671844l-5.4146423 30.582428l-5.4146576 -30.582428z" fill-rule="evenodd"/></g></svg>